<mxfile host="app.diagrams.net" modified="2023-05-21T18:17:24.471Z" agent="Mozilla/5.0 (Windows NT 10.0; Win64; x64) AppleWebKit/537.36 (KHTML, like Gecko) Chrome/113.0.0.0 Safari/537.36" etag="IukBP7LXJ311m0P_ng5q" version="21.3.2" type="device">
  <diagram id="d3xwrjJmMlI8IsP-cI8p" name="Page-1">
    <mxGraphModel dx="1562" dy="861" grid="1" gridSize="10" guides="1" tooltips="1" connect="1" arrows="1" fold="1" page="1" pageScale="1" pageWidth="827" pageHeight="1169" math="0" shadow="0">
      <root>
        <mxCell id="0" />
        <mxCell id="1" parent="0" />
        <mxCell id="OSCMjye8fPy7Yy5Lh9Bj-1" value="кот-тестировщик попал в систему&lt;br&gt;&lt;u&gt;US-010&lt;/u&gt;" style="rounded=0;whiteSpace=wrap;html=1;fillColor=#f0a30a;strokeColor=#BD7000;fontColor=#ffffff;" vertex="1" parent="1">
          <mxGeometry x="40" y="130" width="120" height="60" as="geometry" />
        </mxCell>
        <mxCell id="OSCMjye8fPy7Yy5Lh9Bj-2" value="Кот-тестировщик нажал кнопку &quot;запросить помощь&quot;" style="rounded=0;whiteSpace=wrap;html=1;fillColor=#f0a30a;strokeColor=#BD7000;fontColor=#ffffff;" vertex="1" parent="1">
          <mxGeometry x="370" y="140" width="120" height="60" as="geometry" />
        </mxCell>
        <mxCell id="OSCMjye8fPy7Yy5Lh9Bj-3" value="клиент запросил услугу&lt;br&gt;&lt;u&gt;US-020&lt;/u&gt;" style="rounded=0;whiteSpace=wrap;html=1;fillColor=#f0a30a;strokeColor=#BD7000;fontColor=#ffffff;" vertex="1" parent="1">
          <mxGeometry x="40" y="310" width="120" height="60" as="geometry" />
        </mxCell>
        <mxCell id="OSCMjye8fPy7Yy5Lh9Bj-6" value="" style="edgeStyle=orthogonalEdgeStyle;rounded=0;orthogonalLoop=1;jettySize=auto;html=1;entryX=0;entryY=0.25;entryDx=0;entryDy=0;" edge="1" parent="1" source="OSCMjye8fPy7Yy5Lh9Bj-4" target="OSCMjye8fPy7Yy5Lh9Bj-5">
          <mxGeometry relative="1" as="geometry" />
        </mxCell>
        <mxCell id="OSCMjye8fPy7Yy5Lh9Bj-4" value="Задача выполнена&lt;br&gt;&lt;u&gt;US-030&lt;/u&gt;" style="rounded=0;whiteSpace=wrap;html=1;fillColor=#f0a30a;strokeColor=#BD7000;fontColor=#ffffff;" vertex="1" parent="1">
          <mxGeometry x="490" y="657.5" width="120" height="60" as="geometry" />
        </mxCell>
        <mxCell id="OSCMjye8fPy7Yy5Lh9Bj-5" value="Выставлен счёт пользователю&lt;br&gt;&lt;u&gt;US-030&lt;/u&gt;" style="rounded=0;whiteSpace=wrap;html=1;fillColor=#f0a30a;strokeColor=#BD7000;fontColor=#ffffff;" vertex="1" parent="1">
          <mxGeometry x="684" y="672.5" width="120" height="60" as="geometry" />
        </mxCell>
        <mxCell id="OSCMjye8fPy7Yy5Lh9Bj-8" style="edgeStyle=orthogonalEdgeStyle;rounded=0;orthogonalLoop=1;jettySize=auto;html=1;exitX=1;exitY=0.25;exitDx=0;exitDy=0;entryX=0;entryY=0.5;entryDx=0;entryDy=0;" edge="1" parent="1" source="OSCMjye8fPy7Yy5Lh9Bj-7" target="OSCMjye8fPy7Yy5Lh9Bj-5">
          <mxGeometry relative="1" as="geometry">
            <Array as="points">
              <mxPoint x="630" y="773" />
              <mxPoint x="630" y="703" />
            </Array>
          </mxGeometry>
        </mxCell>
        <mxCell id="OSCMjye8fPy7Yy5Lh9Bj-7" value="Задача провалена&lt;br&gt;&lt;u&gt;US-030&lt;/u&gt;" style="rounded=0;whiteSpace=wrap;html=1;fillColor=#f0a30a;strokeColor=#BD7000;fontColor=#ffffff;" vertex="1" parent="1">
          <mxGeometry x="490" y="757.5" width="120" height="60" as="geometry" />
        </mxCell>
        <mxCell id="OSCMjye8fPy7Yy5Lh9Bj-9" value="Объём оплат клиентом перешёл в следующий десяток кото-единиц&lt;br&gt;&lt;u&gt;US-040&lt;/u&gt;" style="rounded=0;whiteSpace=wrap;html=1;fillColor=#f0a30a;strokeColor=#BD7000;fontColor=#ffffff;" vertex="1" parent="1">
          <mxGeometry x="40" y="430" width="120" height="80" as="geometry" />
        </mxCell>
        <mxCell id="OSCMjye8fPy7Yy5Lh9Bj-12" value="Пересчитать скидку согласно правилу&amp;nbsp;&lt;br&gt;&lt;u&gt;US-040&lt;/u&gt;" style="rounded=0;whiteSpace=wrap;html=1;fillColor=#f0a30a;strokeColor=#BD7000;fontColor=#ffffff;" vertex="1" parent="1">
          <mxGeometry x="234" y="430" width="120" height="60" as="geometry" />
        </mxCell>
        <mxCell id="OSCMjye8fPy7Yy5Lh9Bj-15" value="" style="edgeStyle=orthogonalEdgeStyle;rounded=0;orthogonalLoop=1;jettySize=auto;html=1;" edge="1" parent="1" source="OSCMjye8fPy7Yy5Lh9Bj-13" target="OSCMjye8fPy7Yy5Lh9Bj-14">
          <mxGeometry relative="1" as="geometry" />
        </mxCell>
        <mxCell id="OSCMjye8fPy7Yy5Lh9Bj-13" value="Создана заявка на работу" style="rounded=0;whiteSpace=wrap;html=1;fillColor=#f0a30a;strokeColor=#BD7000;fontColor=#ffffff;" vertex="1" parent="1">
          <mxGeometry x="80" y="757.5" width="120" height="60" as="geometry" />
        </mxCell>
        <mxCell id="OSCMjye8fPy7Yy5Lh9Bj-34" style="edgeStyle=orthogonalEdgeStyle;rounded=0;orthogonalLoop=1;jettySize=auto;html=1;exitX=0.5;exitY=0;exitDx=0;exitDy=0;entryX=0;entryY=0.5;entryDx=0;entryDy=0;" edge="1" parent="1" source="OSCMjye8fPy7Yy5Lh9Bj-37" target="OSCMjye8fPy7Yy5Lh9Bj-4">
          <mxGeometry relative="1" as="geometry" />
        </mxCell>
        <mxCell id="OSCMjye8fPy7Yy5Lh9Bj-35" style="edgeStyle=orthogonalEdgeStyle;rounded=0;orthogonalLoop=1;jettySize=auto;html=1;exitX=1;exitY=0.5;exitDx=0;exitDy=0;entryX=0;entryY=0.5;entryDx=0;entryDy=0;" edge="1" parent="1" source="OSCMjye8fPy7Yy5Lh9Bj-37" target="OSCMjye8fPy7Yy5Lh9Bj-7">
          <mxGeometry relative="1" as="geometry" />
        </mxCell>
        <mxCell id="OSCMjye8fPy7Yy5Lh9Bj-36" style="edgeStyle=orthogonalEdgeStyle;rounded=0;orthogonalLoop=1;jettySize=auto;html=1;exitX=1;exitY=0.5;exitDx=0;exitDy=0;entryX=0;entryY=0.5;entryDx=0;entryDy=0;" edge="1" parent="1" source="OSCMjye8fPy7Yy5Lh9Bj-14" target="OSCMjye8fPy7Yy5Lh9Bj-37">
          <mxGeometry relative="1" as="geometry" />
        </mxCell>
        <mxCell id="OSCMjye8fPy7Yy5Lh9Bj-43" value="" style="edgeStyle=orthogonalEdgeStyle;rounded=0;orthogonalLoop=1;jettySize=auto;html=1;" edge="1" parent="1" source="OSCMjye8fPy7Yy5Lh9Bj-14" target="OSCMjye8fPy7Yy5Lh9Bj-42">
          <mxGeometry relative="1" as="geometry" />
        </mxCell>
        <mxCell id="OSCMjye8fPy7Yy5Lh9Bj-46" style="edgeStyle=orthogonalEdgeStyle;rounded=0;orthogonalLoop=1;jettySize=auto;html=1;exitX=0.25;exitY=1;exitDx=0;exitDy=0;entryX=0;entryY=0.5;entryDx=0;entryDy=0;" edge="1" parent="1" source="OSCMjye8fPy7Yy5Lh9Bj-14" target="OSCMjye8fPy7Yy5Lh9Bj-47">
          <mxGeometry relative="1" as="geometry">
            <mxPoint x="240" y="1140" as="targetPoint" />
          </mxGeometry>
        </mxCell>
        <mxCell id="OSCMjye8fPy7Yy5Lh9Bj-14" value="Воркер назначен" style="rounded=0;whiteSpace=wrap;html=1;fillColor=#f0a30a;strokeColor=#BD7000;fontColor=#ffffff;" vertex="1" parent="1">
          <mxGeometry x="260" y="757.5" width="120" height="60" as="geometry" />
        </mxCell>
        <mxCell id="OSCMjye8fPy7Yy5Lh9Bj-20" value="" style="edgeStyle=orthogonalEdgeStyle;rounded=0;orthogonalLoop=1;jettySize=auto;html=1;" edge="1" parent="1" source="OSCMjye8fPy7Yy5Lh9Bj-16" target="OSCMjye8fPy7Yy5Lh9Bj-19">
          <mxGeometry relative="1" as="geometry" />
        </mxCell>
        <mxCell id="OSCMjye8fPy7Yy5Lh9Bj-16" value="Поступила заявка от рандомного кота&lt;br&gt;&lt;u&gt;US-080&lt;/u&gt;" style="rounded=0;whiteSpace=wrap;html=1;fillColor=#f0a30a;strokeColor=#BD7000;fontColor=#ffffff;" vertex="1" parent="1">
          <mxGeometry x="90" y="1670" width="120" height="60" as="geometry" />
        </mxCell>
        <mxCell id="OSCMjye8fPy7Yy5Lh9Bj-23" value="" style="edgeStyle=orthogonalEdgeStyle;rounded=0;orthogonalLoop=1;jettySize=auto;html=1;" edge="1" parent="1" source="OSCMjye8fPy7Yy5Lh9Bj-19" target="OSCMjye8fPy7Yy5Lh9Bj-22">
          <mxGeometry relative="1" as="geometry" />
        </mxCell>
        <mxCell id="OSCMjye8fPy7Yy5Lh9Bj-19" value="Менеджер связался с рандомным котом&lt;br&gt;&lt;u&gt;US-090&lt;/u&gt;" style="rounded=0;whiteSpace=wrap;html=1;fillColor=#f0a30a;strokeColor=#BD7000;fontColor=#ffffff;" vertex="1" parent="1">
          <mxGeometry x="270" y="1670" width="120" height="60" as="geometry" />
        </mxCell>
        <mxCell id="OSCMjye8fPy7Yy5Lh9Bj-26" value="" style="edgeStyle=orthogonalEdgeStyle;rounded=0;orthogonalLoop=1;jettySize=auto;html=1;" edge="1" parent="1" source="OSCMjye8fPy7Yy5Lh9Bj-22" target="OSCMjye8fPy7Yy5Lh9Bj-25">
          <mxGeometry relative="1" as="geometry" />
        </mxCell>
        <mxCell id="OSCMjye8fPy7Yy5Lh9Bj-28" style="edgeStyle=orthogonalEdgeStyle;rounded=0;orthogonalLoop=1;jettySize=auto;html=1;exitX=1;exitY=0.5;exitDx=0;exitDy=0;entryX=0;entryY=0.5;entryDx=0;entryDy=0;" edge="1" parent="1" source="OSCMjye8fPy7Yy5Lh9Bj-22" target="OSCMjye8fPy7Yy5Lh9Bj-27">
          <mxGeometry relative="1" as="geometry" />
        </mxCell>
        <mxCell id="OSCMjye8fPy7Yy5Lh9Bj-22" value="Тест для рандомного кота назначен&lt;br&gt;&lt;u&gt;US-090&lt;/u&gt;" style="rounded=0;whiteSpace=wrap;html=1;fillColor=#f0a30a;strokeColor=#BD7000;fontColor=#ffffff;" vertex="1" parent="1">
          <mxGeometry x="450" y="1670" width="120" height="60" as="geometry" />
        </mxCell>
        <mxCell id="OSCMjye8fPy7Yy5Lh9Bj-25" value="Тест пройден успешно&lt;br&gt;&lt;u&gt;US-120&lt;/u&gt;" style="rounded=0;whiteSpace=wrap;html=1;fillColor=#f0a30a;strokeColor=#BD7000;fontColor=#ffffff;" vertex="1" parent="1">
          <mxGeometry x="674" y="1630" width="120" height="60" as="geometry" />
        </mxCell>
        <mxCell id="OSCMjye8fPy7Yy5Lh9Bj-27" value="Тест провален&lt;br&gt;&lt;u&gt;US-120&lt;/u&gt;" style="rounded=0;whiteSpace=wrap;html=1;fillColor=#f0a30a;strokeColor=#BD7000;fontColor=#ffffff;" vertex="1" parent="1">
          <mxGeometry x="674" y="1710" width="120" height="60" as="geometry" />
        </mxCell>
        <mxCell id="OSCMjye8fPy7Yy5Lh9Bj-31" style="edgeStyle=orthogonalEdgeStyle;rounded=0;orthogonalLoop=1;jettySize=auto;html=1;exitX=1;exitY=0.25;exitDx=0;exitDy=0;entryX=1;entryY=0.75;entryDx=0;entryDy=0;" edge="1" parent="1" source="OSCMjye8fPy7Yy5Lh9Bj-29" target="OSCMjye8fPy7Yy5Lh9Bj-7">
          <mxGeometry relative="1" as="geometry" />
        </mxCell>
        <mxCell id="OSCMjye8fPy7Yy5Lh9Bj-33" value="" style="edgeStyle=orthogonalEdgeStyle;rounded=0;orthogonalLoop=1;jettySize=auto;html=1;" edge="1" parent="1" source="OSCMjye8fPy7Yy5Lh9Bj-29" target="OSCMjye8fPy7Yy5Lh9Bj-32">
          <mxGeometry relative="1" as="geometry" />
        </mxCell>
        <mxCell id="OSCMjye8fPy7Yy5Lh9Bj-29" value="Воркер не пришёл на заказ&lt;br&gt;&lt;u&gt;US-130&lt;/u&gt;" style="rounded=0;whiteSpace=wrap;html=1;fillColor=#f0a30a;strokeColor=#BD7000;fontColor=#ffffff;" vertex="1" parent="1">
          <mxGeometry x="490" y="842.5" width="120" height="60" as="geometry" />
        </mxCell>
        <mxCell id="OSCMjye8fPy7Yy5Lh9Bj-41" style="edgeStyle=orthogonalEdgeStyle;rounded=0;orthogonalLoop=1;jettySize=auto;html=1;exitX=1;exitY=0.5;exitDx=0;exitDy=0;entryX=0.5;entryY=1;entryDx=0;entryDy=0;" edge="1" parent="1" source="OSCMjye8fPy7Yy5Lh9Bj-32" target="OSCMjye8fPy7Yy5Lh9Bj-13">
          <mxGeometry relative="1" as="geometry">
            <Array as="points">
              <mxPoint x="824" y="873" />
              <mxPoint x="824" y="920" />
              <mxPoint x="140" y="920" />
            </Array>
          </mxGeometry>
        </mxCell>
        <mxCell id="OSCMjye8fPy7Yy5Lh9Bj-32" value="Создать копию задачи&lt;br&gt;&lt;u&gt;US-130&lt;/u&gt;" style="rounded=0;whiteSpace=wrap;html=1;fillColor=#f0a30a;strokeColor=#BD7000;fontColor=#ffffff;" vertex="1" parent="1">
          <mxGeometry x="684" y="842.5" width="120" height="60" as="geometry" />
        </mxCell>
        <mxCell id="OSCMjye8fPy7Yy5Lh9Bj-38" style="edgeStyle=orthogonalEdgeStyle;rounded=0;orthogonalLoop=1;jettySize=auto;html=1;exitX=0.5;exitY=1;exitDx=0;exitDy=0;entryX=0;entryY=0.5;entryDx=0;entryDy=0;" edge="1" parent="1" source="OSCMjye8fPy7Yy5Lh9Bj-37" target="OSCMjye8fPy7Yy5Lh9Bj-29">
          <mxGeometry relative="1" as="geometry" />
        </mxCell>
        <mxCell id="OSCMjye8fPy7Yy5Lh9Bj-37" value="?" style="rhombus;whiteSpace=wrap;html=1;" vertex="1" parent="1">
          <mxGeometry x="413.5" y="768.5" width="40" height="38" as="geometry" />
        </mxCell>
        <mxCell id="OSCMjye8fPy7Yy5Lh9Bj-45" value="" style="edgeStyle=orthogonalEdgeStyle;rounded=0;orthogonalLoop=1;jettySize=auto;html=1;" edge="1" parent="1" source="OSCMjye8fPy7Yy5Lh9Bj-42" target="OSCMjye8fPy7Yy5Lh9Bj-44">
          <mxGeometry relative="1" as="geometry" />
        </mxCell>
        <mxCell id="OSCMjye8fPy7Yy5Lh9Bj-42" value="Сформирован список расходников&lt;br&gt;US-150" style="rounded=0;whiteSpace=wrap;html=1;fillColor=#f0a30a;strokeColor=#BD7000;fontColor=#ffffff;" vertex="1" parent="1">
          <mxGeometry x="260" y="990" width="120" height="60" as="geometry" />
        </mxCell>
        <mxCell id="OSCMjye8fPy7Yy5Lh9Bj-52" value="" style="edgeStyle=orthogonalEdgeStyle;rounded=0;orthogonalLoop=1;jettySize=auto;html=1;" edge="1" parent="1" source="OSCMjye8fPy7Yy5Lh9Bj-44" target="OSCMjye8fPy7Yy5Lh9Bj-51">
          <mxGeometry relative="1" as="geometry" />
        </mxCell>
        <mxCell id="OSCMjye8fPy7Yy5Lh9Bj-44" value="Расходники собраны&lt;br&gt;US-160" style="rounded=0;whiteSpace=wrap;html=1;fillColor=#f0a30a;strokeColor=#BD7000;fontColor=#ffffff;" vertex="1" parent="1">
          <mxGeometry x="587" y="990" width="120" height="60" as="geometry" />
        </mxCell>
        <mxCell id="OSCMjye8fPy7Yy5Lh9Bj-49" value="" style="edgeStyle=orthogonalEdgeStyle;rounded=0;orthogonalLoop=1;jettySize=auto;html=1;" edge="1" parent="1" source="OSCMjye8fPy7Yy5Lh9Bj-47" target="OSCMjye8fPy7Yy5Lh9Bj-48">
          <mxGeometry relative="1" as="geometry" />
        </mxCell>
        <mxCell id="OSCMjye8fPy7Yy5Lh9Bj-47" value="Подана заявка на печенье&lt;br&gt;US-170" style="rounded=0;whiteSpace=wrap;html=1;fillColor=#f0a30a;strokeColor=#BD7000;fontColor=#ffffff;" vertex="1" parent="1">
          <mxGeometry x="260" y="1100" width="120" height="60" as="geometry" />
        </mxCell>
        <mxCell id="OSCMjye8fPy7Yy5Lh9Bj-50" style="edgeStyle=orthogonalEdgeStyle;rounded=0;orthogonalLoop=1;jettySize=auto;html=1;exitX=1;exitY=0.5;exitDx=0;exitDy=0;entryX=0;entryY=0.75;entryDx=0;entryDy=0;" edge="1" parent="1" source="OSCMjye8fPy7Yy5Lh9Bj-48" target="OSCMjye8fPy7Yy5Lh9Bj-44">
          <mxGeometry relative="1" as="geometry" />
        </mxCell>
        <mxCell id="OSCMjye8fPy7Yy5Lh9Bj-48" value="Печенье прибыло&lt;br&gt;US-170" style="rounded=0;whiteSpace=wrap;html=1;fillColor=#f0a30a;strokeColor=#BD7000;fontColor=#ffffff;" vertex="1" parent="1">
          <mxGeometry x="423" y="1100" width="120" height="60" as="geometry" />
        </mxCell>
        <mxCell id="OSCMjye8fPy7Yy5Lh9Bj-54" value="" style="edgeStyle=orthogonalEdgeStyle;rounded=0;orthogonalLoop=1;jettySize=auto;html=1;" edge="1" parent="1" source="OSCMjye8fPy7Yy5Lh9Bj-51" target="OSCMjye8fPy7Yy5Lh9Bj-53">
          <mxGeometry relative="1" as="geometry" />
        </mxCell>
        <mxCell id="OSCMjye8fPy7Yy5Lh9Bj-51" value="Воркер приступил к работе&lt;br&gt;US-180" style="rounded=0;whiteSpace=wrap;html=1;fillColor=#f0a30a;strokeColor=#BD7000;fontColor=#ffffff;" vertex="1" parent="1">
          <mxGeometry x="760" y="990" width="120" height="60" as="geometry" />
        </mxCell>
        <mxCell id="OSCMjye8fPy7Yy5Lh9Bj-53" value="Воркер завершил работу US-180" style="rounded=0;whiteSpace=wrap;html=1;fillColor=#f0a30a;strokeColor=#BD7000;fontColor=#ffffff;" vertex="1" parent="1">
          <mxGeometry x="930" y="990" width="120" height="60" as="geometry" />
        </mxCell>
        <mxCell id="OSCMjye8fPy7Yy5Lh9Bj-55" value="Наступило 00:00 Воскресенья US-220" style="rounded=0;whiteSpace=wrap;html=1;fillColor=#f0a30a;strokeColor=#BD7000;fontColor=#ffffff;" vertex="1" parent="1">
          <mxGeometry x="90" y="1290" width="120" height="60" as="geometry" />
        </mxCell>
        <mxCell id="OSCMjye8fPy7Yy5Lh9Bj-56" value="Наступило 00:00 последнего дня месяца US-220" style="rounded=0;whiteSpace=wrap;html=1;fillColor=#f0a30a;strokeColor=#BD7000;fontColor=#ffffff;" vertex="1" parent="1">
          <mxGeometry x="90" y="1370" width="120" height="60" as="geometry" />
        </mxCell>
      </root>
    </mxGraphModel>
  </diagram>
</mxfile>
